<?xml version="1.0" encoding="UTF-8"?>
<svg id="Camada_1" xmlns="http://www.w3.org/2000/svg" version="1.1" viewBox="0 0 1140 419.93">
  <!-- Generator: Adobe Illustrator 29.7.1, SVG Export Plug-In . SVG Version: 2.1.1 Build 8)  -->
  <defs>
    <style>
      .st0 {
        fill: #fff;
      }

      .st1 {
        fill: #00995c;
      }
    </style>
  </defs>
  <path class="st1" d="M10,329.93c0,44.18,35.82,80,80,80h1040V90c0-44.18-35.82-80-80-80H90C45.82,10,10,45.82,10,90v239.93Z"/>
  <path class="st0" d="M1050,10c44.18,0,80,35.82,80,80v319.93H90c-44.18,0-80-35.82-80-80V90C10,45.82,45.82,10,90,10h960M1050,0H90C40.37,0,0,40.37,0,90v239.93c0,49.63,40.37,90,90,90h1050V90c0-49.63-40.37-90-90-90h0Z"/>
  <g>
    <path class="st0" d="M499.95,329.17v.83h-10.05l-3.38-10.72h-18.52l-3.3,10.72h-10.12v-.83l16.95-51.67h11.47l16.95,51.67ZM483.75,310.28l-6.52-20.85-6.45,20.85h12.97Z"/>
    <path class="st0" d="M529.13,292.28l-1.35,8.85c-1.42-.3-2.47-.45-3.75-.45-3.07,0-5.85.75-8.1,1.95v27.37h-9.37v-37.5h6.45l1.42,3.23c2.85-2.7,6.3-4.2,10.35-4.2,1.65,0,3.3.38,4.35.75Z"/>
    <path class="st0" d="M563.93,304.43v25.57h-5.77l-1.35-2.33c-2.7,2.1-5.92,3.3-10.27,3.3-8.77,0-13.87-4.95-13.87-11.62,0-7.05,4.95-11.78,14.47-11.78h7.42v-1.35c0-4.12-3.15-6.38-8.92-6.38-3.23,0-7.05.6-10.42,1.58l-1.58-7.8c4.65-1.35,9.83-2.1,14.17-2.1,11.7,0,16.12,5.33,16.12,12.9ZM548.25,323.4c2.17,0,4.35-.45,6.3-1.43v-7.27h-6.53c-4.05,0-5.77,1.8-5.77,4.28,0,2.77,2.33,4.42,6,4.42Z"/>
    <path class="st0" d="M600.53,340.42c0,5.1-4.35,9.15-12,9.15-3.67,0-7.2-.9-9.15-1.65l2.02-7.12c1.43.52,3.23,1.12,5.17,1.12,2.93,0,4.35-.83,4.35-2.55s-2.03-2.63-5.4-3.15l.67-5.7c-9.3-1.65-15.07-8.47-15.07-18.82,0-12.45,7.88-20.17,21-20.17,3.45,0,6.67.53,9.83,1.35l-1.35,8.33c-2.55-.75-4.95-1.12-7.35-1.12-7.57,0-12.37,4.2-12.37,11.47s4.5,10.8,12.45,10.8c2.4,0,5.03-.52,7.72-1.27l1.42,8.02c-3,.98-5.77,1.58-8.62,1.8l-.23,1.8c4.42.53,6.9,3.45,6.9,7.73Z"/>
    <path class="st0" d="M638.7,304.43v25.57h-5.77l-1.35-2.33c-2.7,2.1-5.92,3.3-10.27,3.3-8.77,0-13.87-4.95-13.87-11.62,0-7.05,4.95-11.78,14.47-11.78h7.42v-1.35c0-4.12-3.15-6.38-8.92-6.38-3.23,0-7.05.6-10.42,1.58l-1.58-7.8c4.65-1.35,9.83-2.1,14.17-2.1,11.7,0,16.12,5.33,16.12,12.9ZM623.03,323.4c2.17,0,4.35-.45,6.3-1.43v-7.27h-6.53c-4.05,0-5.77,1.8-5.77,4.28,0,2.77,2.33,4.42,6,4.42Z"/>
    <path class="st0" d="M669.83,329.4c-2.77,1.28-5.17,1.58-8.1,1.58-6.82,0-12.22-3.83-12.22-12.6v-17.62l-5.62-.6v-7.65h5.62l1.42-11.25h7.88v11.25h9.97v8.25h-9.97v15.9c0,4.58,2.25,5.62,6.15,5.62,1.05,0,2.03-.15,3.3-.53l1.57,7.65Z"/>
    <path class="st0" d="M708.08,292.5v37.5h-6.37l-.98-2.48c-3.3,2.03-7.42,3.45-12.37,3.45-8.33,0-13.2-5.1-13.2-12.67v-25.8h9.38v23.32c0,4.05,2.1,6.45,6.6,6.45,3.15,0,5.47-.67,7.65-1.73v-28.05h9.3Z"/>
    <path class="st0" d="M753.6,310.58c0,12.45-7.58,20.4-18,20.4-4.05,0-7.5-.97-10.12-3.22l-.97,2.25h-6.38v-56.25h9.38v19.8c2.55-1.35,5.55-2.02,8.92-2.02,10.72,0,17.17,6.97,17.17,19.05ZM744,310.88c0-7.28-3.83-11.25-9.82-11.25-2.33,0-4.65.45-6.67,1.42v19.12c1.95,1.5,4.05,2.25,6.67,2.25,6.15,0,9.82-3.82,9.82-11.55Z"/>
    <path class="st0" d="M790.28,304.43v25.57h-5.77l-1.35-2.33c-2.7,2.1-5.92,3.3-10.27,3.3-8.77,0-13.87-4.95-13.87-11.62,0-7.05,4.95-11.78,14.47-11.78h7.42v-1.35c0-4.12-3.15-6.38-8.92-6.38-3.23,0-7.05.6-10.42,1.58l-1.58-7.8c4.65-1.35,9.83-2.1,14.17-2.1,11.7,0,16.12,5.33,16.12,12.9ZM774.6,323.4c2.17,0,4.35-.45,6.3-1.43v-7.27h-6.53c-4.05,0-5.77,1.8-5.77,4.28,0,2.77,2.33,4.42,6,4.42Z"/>
  </g>
  <path class="st0" d="M130,112.59c0-1.37,1.2-2.57,2.57-2.57h30.85c1.37,0,2.57,1.2,2.57,2.57v69.24c0,12.85,6.17,20.74,20.22,20.74s20.05-7.88,20.05-20.74v-69.24c0-1.37,1.2-2.57,2.57-2.57h30.85c1.37,0,2.57,1.2,2.57,2.57v67.18c0,30.16-15.08,51.93-56.04,51.93s-56.21-21.76-56.21-51.93v-67.18ZM259.39,227.41v-85.69c0-1.37,1.2-2.57,2.57-2.57h29.13c1.37,0,2.57,1.2,2.57,2.57v15.6c4.11-12.34,17.82-19.88,32.39-19.88,17.14,0,27.93,8.91,27.93,32.56v57.41c0,1.37-1.2,2.57-2.57,2.57h-29.13c-1.37,0-2.57-1.2-2.57-2.57v-50.73c0-8.23-2.74-13.2-12.68-13.2s-13.37,1.89-13.37,4.97v58.95c0,1.37-1.2,2.57-2.57,2.57h-29.13c-1.37,0-2.57-1.2-2.57-2.57ZM387.23,102.99c14.91,0,19.02,1.37,19.02,13.54s-4.11,13.71-19.02,13.71-19.19-1.2-19.19-13.71,4.28-13.54,19.19-13.54ZM370.27,141.72c0-1.37,1.2-2.57,2.57-2.57h29.13c1.37,0,2.57,1.2,2.57,2.57v85.69c0,1.37-1.2,2.57-2.57,2.57h-29.13c-1.37,0-2.57-1.2-2.57-2.57v-85.69ZM421.68,141.72c0-1.37,1.2-2.57,2.57-2.57h29.13c1.37,0,2.57,1.2,2.57,2.57v15.6c4.11-12.34,17.65-19.88,31.19-19.88s22.62,5.66,26.05,18.85c4.63-11.82,18.34-18.85,31.88-18.85,16.97,0,28.11,8.91,28.11,30.85v59.12c0,1.37-1.2,2.57-2.57,2.57h-29.13c-1.37,0-2.57-1.2-2.57-2.57v-50.73c0-8.23-2.74-13.2-11.82-13.2s-12.51,1.89-12.51,4.97v58.95c0,1.37-1.2,2.57-2.57,2.57h-29.13c-1.37,0-2.57-1.2-2.57-2.57v-50.73c0-8.23-2.74-13.2-11.82-13.2s-12.51,1.89-12.51,4.97v58.95c0,1.37-1.2,2.57-2.57,2.57h-29.13c-1.37,0-2.57-1.2-2.57-2.57v-85.69ZM635.9,137.44c31.7,0,45.59,17.48,45.59,44.56,0,5.83.17,11.48-6.68,11.48h-52.95c1.71,10.8,7.88,14.74,28.28,14.74h26.05c1.71,0,3.08,1.54,2.74,3.26l-2.74,13.88c-.17.86-.51,1.37-1.03,1.54-8.23,3.43-20.39,4.8-34.62,4.8-37.36,0-54.15-17.99-54.15-47.47s16.28-46.79,49.53-46.79ZM649.95,176.68c0-10.63-3.08-17.31-13.54-17.31-8.74,0-13.71,4.11-14.91,17.31h28.45ZM726.38,137.44c13.88,0,23.31,6.68,28.79,17.82v-42.73c0-1.37,1.2-2.57,2.57-2.57h29.13c1.37,0,2.57,1.2,2.57,2.57v114.88c0,1.37-1.2,2.57-2.57,2.57h-29.13c-1.37,0-2.57-1.2-2.57-2.57v-13.54c-5.48,11.14-14.91,17.82-28.79,17.82-23.65,0-32.9-19.54-32.9-47.13s9.25-47.13,32.9-47.13ZM743.69,206.84c8.05,0,11.48-3.6,11.48-8.23v-29.13c0-4.8-4.46-7.2-11.48-7.2-10.11,0-14.22,7.03-14.22,22.28s4.11,22.28,14.22,22.28Z"/>
  <path class="st0" d="M854.06,230h38.03c2.23,0,3.43-.69,4.63-2.23l24.69-33.51c.51-.69,1.03-1.54,1.03-2.4,0-1.2-1.2-1.89-3.26-1.89h-14.2c-2.23,0-3.43-1.03-3.43-2.4,0-.86.51-1.71,1.03-2.4l22.63-30.38c.51-.69,1.03-1.54,1.03-2.4,0-1.37-1.2-2.4-3.43-2.4h-16.83c-2.23,0-3.43-.86-3.43-2.23,0-.86.51-1.89,1.03-2.57l21.97-29.2c1.2-1.54,2.91-2.06,4.46-2.06s3.26.51,4.46,2.06l21.97,29.2c.51.69,1.03,1.71,1.03,2.57,0,1.37-1.2,2.23-3.43,2.23h-16.83c-2.23,0-3.43,1.03-3.43,2.4,0,.86.51,1.71,1.03,2.4l22.63,30.38c.51.69,1.03,1.54,1.03,2.4,0,1.37-1.2,2.4-3.43,2.4h-14.2c-2.06,0-3.26.69-3.26,1.89,0,.86.51,1.71,1.03,2.4l24.69,33.51c1.2,1.54,2.57,2.23,4.63,2.23h38.03c2.74,0,4.29-1.03,4.29-2.74,0-1.03-.51-2.06-1.03-2.74l-22.29-30.25c-.51-.69-1.03-1.54-1.03-2.4,0-1.2,1.2-1.89,3.26-1.89h26.74c2.74,0,4.11-1.03,4.11-2.74,0-1.03-.51-2.06-1.03-2.74l-54.69-72.43c-1.03-1.37-2.06-2.06-4.46-2.06h-61.37c-1.54,0-3.26.34-4.46,2.06l-52.97,72.43c-.69,1.03-1.03,1.89-1.03,2.74,0,1.71,1.37,2.74,4.11,2.74h26.74c2.06,0,3.26.69,3.26,1.89,0,.86-.51,1.71-1.03,2.4l-22.29,30.25c-.51.69-1.03,1.71-1.03,2.74,0,1.71,1.54,2.74,4.29,2.74Z"/>
</svg>